name ./resultDataOpenSim/trcMotMarkerGrf/sub10/grf-14-01.mot
datacolumns 19
datarows 25
range 1.36000000 1.45600000
endheader

                time	     ground_force_vx	     ground_force_vy	     ground_force_vz	     ground_force_px	     ground_force_py	     ground_force_pz	   l_ground_force_vx	   l_ground_force_vy	   l_ground_force_vz	   l_ground_force_px	   l_ground_force_py	   l_ground_force_pz	     ground_torque_x	     ground_torque_y	     ground_torque_z	   l_ground_torque_x	   l_ground_torque_y	   l_ground_torque_z	
          1.36000000	        -26.04530242	        545.24492318	        -44.56192621	          0.93860025	          0.00000000	          0.00710686	          0.00000000	          0.00000000	          0.00000000	          0.00000000	          0.00000000	          0.00000000	          0.00000000	          2.24156578	          0.00000000	          0.00000000	          0.00000000	          0.00000000	
          1.36400000	        -23.97223755	        539.60842585	        -43.49760770	          0.93883507	          0.00000000	          0.00678715	          0.00000000	          0.00000000	          0.00000000	          0.00000000	          0.00000000	          0.00000000	          0.00000000	          2.22570042	          0.00000000	          0.00000000	          0.00000000	          0.00000000	
          1.36800000	        -21.53797257	        533.92798839	        -41.63298367	          0.93895986	          0.00000000	          0.00643518	          0.00000000	          0.00000000	          0.00000000	          0.00000000	          0.00000000	          0.00000000	          0.00000000	          2.23307443	          0.00000000	          0.00000000	          0.00000000	          0.00000000	
          1.37200000	        -18.70356397	        528.23417266	        -39.15842798	          0.93896663	          0.00000000	          0.00606451	          0.00000000	          0.00000000	          0.00000000	          0.00000000	          0.00000000	          0.00000000	          0.00000000	          2.26462193	          0.00000000	          0.00000000	          0.00000000	          0.00000000	
          1.37600000	        -15.54552828	        522.59110196	        -36.38499995	          0.93887178	          0.00000000	          0.00569406	          0.00000000	          0.00000000	          0.00000000	          0.00000000	          0.00000000	          0.00000000	          0.00000000	          2.31776972	          0.00000000	          0.00000000	          0.00000000	          0.00000000	
          1.38000000	        -12.22543628	        517.08160863	        -33.68845374	          0.93870570	          0.00000000	          0.00534049	          0.00000000	          0.00000000	          0.00000000	          0.00000000	          0.00000000	          0.00000000	          0.00000000	          2.38656448	          0.00000000	          0.00000000	          0.00000000	          0.00000000	
          1.38400000	         -8.93918128	        511.77910553	        -31.44198261	          0.93850584	          0.00000000	          0.00501567	          0.00000000	          0.00000000	          0.00000000	          0.00000000	          0.00000000	          0.00000000	          0.00000000	          2.46300420	          0.00000000	          0.00000000	          0.00000000	          0.00000000	
          1.38800000	         -5.86884744	        506.74106335	        -29.94911415	          0.93830697	          0.00000000	          0.00472935	          0.00000000	          0.00000000	          0.00000000	          0.00000000	          0.00000000	          0.00000000	          0.00000000	          2.53915019	          0.00000000	          0.00000000	          0.00000000	          0.00000000	
          1.39200000	         -3.14504419	        502.03447531	        -29.38955165	          0.93813085	          0.00000000	          0.00449398	          0.00000000	          0.00000000	          0.00000000	          0.00000000	          0.00000000	          0.00000000	          0.00000000	          2.60904400	          0.00000000	          0.00000000	          0.00000000	          0.00000000	
          1.39600000	         -0.81760146	        497.75024309	        -29.78875404	          0.93799804	          0.00000000	          0.00432114	          0.00000000	          0.00000000	          0.00000000	          0.00000000	          0.00000000	          0.00000000	          0.00000000	          2.66957131	          0.00000000	          0.00000000	          0.00000000	          0.00000000	
          1.40000000	          1.16208221	        493.97519475	        -31.01751735	          0.93790850	          0.00000000	          0.00421527	          0.00000000	          0.00000000	          0.00000000	          0.00000000	          0.00000000	          0.00000000	          0.00000000	          2.72010213	          0.00000000	          0.00000000	          0.00000000	          0.00000000	
          1.40400000	          2.93706238	        490.75408637	        -32.82259880	          0.93784519	          0.00000000	          0.00417218	          0.00000000	          0.00000000	          0.00000000	          0.00000000	          0.00000000	          0.00000000	          0.00000000	          2.76146881	          0.00000000	          0.00000000	          0.00000000	          0.00000000	
          1.40800000	          4.70911254	        488.08026772	        -34.88176681	          0.93778655	          0.00000000	          0.00417350	          0.00000000	          0.00000000	          0.00000000	          0.00000000	          0.00000000	          0.00000000	          0.00000000	          2.79508792	          0.00000000	          0.00000000	          0.00000000	          0.00000000	
          1.41200000	          6.67855246	        485.91396855	        -36.86737219	          0.93768913	          0.00000000	          0.00420209	          0.00000000	          0.00000000	          0.00000000	          0.00000000	          0.00000000	          0.00000000	          0.00000000	          2.82266693	          0.00000000	          0.00000000	          0.00000000	          0.00000000	
          1.41600000	          8.98579798	        484.21251321	        -38.50104688	          0.93752466	          0.00000000	          0.00424025	          0.00000000	          0.00000000	          0.00000000	          0.00000000	          0.00000000	          0.00000000	          0.00000000	          2.84634811	          0.00000000	          0.00000000	          0.00000000	          0.00000000	
          1.42000000	         11.67579726	        482.95118325	        -39.59539380	          0.93728897	          0.00000000	          0.00427057	          0.00000000	          0.00000000	          0.00000000	          0.00000000	          0.00000000	          0.00000000	          0.00000000	          2.86882354	          0.00000000	          0.00000000	          0.00000000	          0.00000000	
          1.42400000	         14.69272888	        482.12078064	        -40.08214527	          0.93698511	          0.00000000	          0.00428052	          0.00000000	          0.00000000	          0.00000000	          0.00000000	          0.00000000	          0.00000000	          0.00000000	          2.89309407	          0.00000000	          0.00000000	          0.00000000	          0.00000000	
          1.42800000	         17.90276337	        481.71872340	        -40.01902529	          0.93665074	          0.00000000	          0.00426225	          0.00000000	          0.00000000	          0.00000000	          0.00000000	          0.00000000	          0.00000000	          0.00000000	          2.92194920	          0.00000000	          0.00000000	          0.00000000	          0.00000000	
          1.43200000	         21.13630999	        481.75289459	        -39.57204822	          0.93632771	          0.00000000	          0.00420192	          0.00000000	          0.00000000	          0.00000000	          0.00000000	          0.00000000	          0.00000000	          0.00000000	          2.95753660	          0.00000000	          0.00000000	          0.00000000	          0.00000000	
          1.43600000	         24.23971985	        482.25165992	        -38.97472193	          0.93605352	          0.00000000	          0.00408732	          0.00000000	          0.00000000	          0.00000000	          0.00000000	          0.00000000	          0.00000000	          0.00000000	          3.00135050	          0.00000000	          0.00000000	          0.00000000	          0.00000000	
          1.44000000	         27.12384974	        483.26607742	        -38.46999544	          0.93586593	          0.00000000	          0.00391694	          0.00000000	          0.00000000	          0.00000000	          0.00000000	          0.00000000	          0.00000000	          0.00000000	          3.05463791	          0.00000000	          0.00000000	          0.00000000	          0.00000000	
          1.44400000	         29.79238451	        484.86161207	        -38.25279727	          0.93578012	          0.00000000	          0.00369584	          0.00000000	          0.00000000	          0.00000000	          0.00000000	          0.00000000	          0.00000000	          0.00000000	          3.11882971	          0.00000000	          0.00000000	          0.00000000	          0.00000000	
          1.44800000	         32.34001934	        487.10713678	        -38.43040421	          0.93579292	          0.00000000	          0.00342405	          0.00000000	          0.00000000	          0.00000000	          0.00000000	          0.00000000	          0.00000000	          0.00000000	          3.19546529	          0.00000000	          0.00000000	          0.00000000	          0.00000000	
          1.45200000	         34.92676314	        490.06551012	        -39.00527117	          0.93589987	          0.00000000	          0.00309489	          0.00000000	          0.00000000	          0.00000000	          0.00000000	          0.00000000	          0.00000000	          0.00000000	          3.28536594	          0.00000000	          0.00000000	          0.00000000	          0.00000000	
          1.45600000	         37.74275637	        493.77707887	        -39.88119031	          0.93609491	          0.00000000	          0.00270036	          0.00000000	          0.00000000	          0.00000000	          0.00000000	          0.00000000	          0.00000000	          0.00000000	          3.38737543	          0.00000000	          0.00000000	          0.00000000	          0.00000000	
